<?xml version="1.0" encoding="UTF-8"?>
<!DOCTYPE svg PUBLIC "-//W3C//DTD SVG 1.1//EN" "http://www.w3.org/Graphics/SVG/1.1/DTD/svg11.dtd">
<!-- Creator: CorelDRAW -->
<svg xmlns="http://www.w3.org/2000/svg" xml:space="preserve" width="452.374mm" height="121.843mm" version="1.1" style="shape-rendering:geometricPrecision; text-rendering:geometricPrecision; image-rendering:optimizeQuality; fill-rule:evenodd; clip-rule:evenodd"
viewBox="0 0 43540.84 11727.32"
 xmlns:xlink="http://www.w3.org/1999/xlink"
 xmlns:xodm="http://www.corel.com/coreldraw/odm/2003">
 <defs>
  <style type="text/css">
   <![CDATA[
    .fil0 {fill:#3056D3}
   ]]>
  </style>
 </defs>
 <g id="Camada_x0020_1">
  <metadata id="CorelCorpID_0Corel-Layer"/>
  <path class="fil0" d="M24843.47 3982.28l341.86 1919.02 -1183.38 0 841.52 -1919.02zm17145.82 -2958.5c-257.03,0 -994.78,-506.96 -1425.84,154.05 -134.95,206.95 -220.85,399.76 -283.47,672.2l473.35 0c186.13,-809.74 967.18,93.93 1573.27,-271.15 417.03,-251.21 426.25,-707.99 530.52,-928.23l-473.36 0c-40.15,76.9 -74.87,171.99 -121.2,250.3 -49.81,84.18 -159.67,122.84 -273.26,122.84zm-736.31 2958.5l315.56 1919.02 -1157.09 0 841.52 -1919.02zm-5206.87 26.64c5.72,260.37 286.46,1651.33 341.87,1892.38l-1157.09 0c6.81,-82.93 148.61,-374.58 192.72,-471.01 73.52,-160.7 140.98,-312.11 219.56,-470.44l402.93 -950.93zm-3576.43 4237.84l1656.72 0 578.54 -1066.12 1840.81 0 296.5 1066.12 2412.12 0c84.26,0 128.14,-152.55 166.57,-230.97l411.98 -835.15 1972.29 0 210.37 1066.12 1525.25 0 -1184.69 -5703.75 -1839.5 0 -2340.46 4664.28 -999.3 -4664.28 -1840.81 0 -2866.39 5703.75zm-12727.89 133.27c487.49,0 714.03,23.49 1190.14,-73.1 107.83,-21.88 180.47,-50.14 274.71,-65.27l1717.13 5.1 376.91 -817.36c39.21,-79.73 90.66,-248.76 175.32,-248.76l1919.7 0c0,204.89 195.96,890.39 210.38,1066.12 1201.88,0 1755.9,0 2945.3,0 76.71,-333.73 205.45,-1369.8 277.73,-1824.1 91.18,-573.06 221.91,-1313.36 221.91,-1880.67 19.36,28.22 0.84,-10.37 28.19,51.38 18.11,40.91 9.59,20.15 22.07,57.6 156.65,469.82 1363.48,3281.47 1527.58,3595.79l1656.74 0c91.45,-397.84 362.38,-2359.76 439.32,-2833.05 78.75,-484.5 141.57,-946.13 221.92,-1427.56 38.58,-231.07 206.56,-1260.47 206.56,-1443.14l-1498.95 0c-10.53,128.06 -54.1,314.73 -71.27,434.18 -25.33,176.3 -42.51,287.99 -67.85,464.29 -117.44,817.14 -360.54,1980.16 -360.54,2752.99 -3.51,-5.62 -7.3,-21.79 -8.48,-18.04 -10.95,-24.41 -13.42,-30.34 -15.95,-37.15 -0.94,-2.58 -19.45,-59.03 -19.73,-59.95 -17.68,-57.67 -19.63,-73.78 -34.67,-124.79 -102.03,-346.21 -839.83,-2035.33 -1021.91,-2482.46 -61.74,-151.62 -363.81,-830.61 -371.9,-929.07l-1761.92 0c0,217.54 -151.71,1069.8 -195.63,1347.61 -74.56,471.74 -138.8,892.52 -206.47,1363.27l-413.12 2699.68c-3.57,-5.7 -6.86,-22.28 -7.91,-18.61l-1122.87 -5391.95 -1919.71 0 -2645.47 5389.26 124.6 -907.85c13.75,-82.82 41.79,-209.94 48.93,-296.88 -240.06,96.52 -428.96,270.52 -1472.64,266.53 -350.91,0 -769.18,-198.77 -924.95,-395.2 -780.84,-984.77 -142.66,-2776.51 1135.32,-2776.51 511.81,0 907.68,68.94 1330.82,356.96l299.62 202.75 236.68 -1545.88c0,-84.39 -567.75,-264.05 -683.66,-293.25 -1054.43,-265.7 -2148.32,-171 -3024.79,505.94 -323.89,250.16 -622.92,626.17 -806.28,995.21 -666.8,1342.04 -504.91,3189.94 939.31,4041.72 249.06,146.89 734.33,294.22 1129.78,294.22z"/>
  <path class="fil0" d="M27901.6 9233.13l-49.54 387.7 841.04 0 -56.08 425.92 -843.48 0 -124.95 970.55 -461.62 0 290.42 -2213.02 1301.79 0 -53.78 428.84 -843.79 0zm2149.72 1784.18l56.21 -428.33 428.1 0 177.99 -1356.3 -392.3 0 56.21 -428.33 392.3 0 0.01 -0.06 468.4 0 -0.01 0.06 441.08 0 -53.72 428.33 -444.38 0 -180.53 1356.3 408.62 0 -53.72 428.33 -411.91 0 -464.27 0 -428.1 0zm4253.65 -1147.16c52.25,31.27 99.33,70.67 138.72,119.98 76.75,96.09 108.74,210.22 108.74,332.34 0,112.54 -21.54,221.56 -71.35,322.86 -48.17,97.97 -117.93,178.84 -207.78,240.86 -77.85,53.75 -168.2,85.03 -260.56,102.79 -63.73,12.24 -131.18,17.6 -195.91,21.37 -95.14,5.52 -190.87,6.97 -286.16,6.97l-532.36 0 289.9 -2213.02 507.85 0c115.44,0 259.9,1.78 372.23,29.59 80.46,19.91 155.43,54.68 218.85,108.55 60.82,51.67 107.17,115.22 138.88,188.36 32.75,75.57 46.75,155.96 46.75,238.07 0,134.1 -32.72,262.14 -115.23,369.58 -42.98,55.97 -94.41,99.35 -152.58,131.71zm3120.38 224.81l587.95 922.35 -526.29 0 -531.7 -860.11 -115.25 860.11 -458.89 0 290.42 -2213.02 434.23 0c114.91,0 262.92,1.76 374.44,30.75 80.47,20.92 153.96,57.27 219.14,108.78 71.64,56.62 127.3,126.41 164.99,209.72 39.1,86.41 56.38,178.83 56.38,273.44 0,170.82 -43.76,332.43 -156.95,463.21 -90.94,105.09 -208.46,169.36 -338.47,204.77zm3517.28 431.27l-738.7 0 -274.12 491.09 -508.91 0 1331.69 -2390.93 840.42 2390.93 -481.36 0 -169.02 -491.09zm-7250.24 -1304.72l-57.67 448.73 42.22 0c98.86,0 285.14,-6 371.15,-61.38 64.86,-41.77 81.33,-113.97 81.33,-187.2 0,-56.6 -11.1,-117.95 -61.85,-151.12 -68.8,-44.97 -241.47,-49.03 -320.89,-49.03l-54.28 0zm-179.61 1375.69l131.71 0c65.53,0 137.78,-0.42 202.75,-9.51 35.54,-4.98 72.1,-13.36 103.58,-26.89 43.8,-20.19 77.22,-50.93 101.93,-92.35 27.77,-46.56 38.88,-97.84 38.88,-151.79 0,-65.02 -12.87,-135.34 -70.81,-173.56 -77.18,-50.9 -261.94,-55.65 -351.15,-55.65l-90.69 0 -66.21 509.75zm3495.69 -868.88c101.87,-0.53 285.7,-8.32 366.87,-64.47 67.22,-46.5 81.73,-132.37 81.73,-208.78 0,-59.89 -10.47,-130.45 -63.65,-167.01 -67.38,-46.33 -234.95,-51.76 -318.09,-52.01l-66.86 492.27zm3398.57 386.51l402.76 0 -132.9 -426.02c-5.91,-18.93 -10.97,-38.41 -15.58,-57.96 -11.96,24.99 -24.21,49.83 -36.84,74.48l-217.43 409.5z"/>
  <path class="fil0" d="M12451.16 4917.16c50.12,308.09 76.4,624.24 76.4,946.47 0,3238.36 -2625.23,5863.69 -5863.63,5863.69 -1260.55,0 -2428.2,-397.86 -3384.15,-1074.77 10.57,2.31 21.13,4.52 31.7,6.69l0.93 0.19c95.47,20 190.75,36.56 285.73,50.12l0.44 0.11 28.01 3.88 7.86 1.08c12.58,1.63 25.16,3.34 37.79,4.92l13.17 1.71c39.7,4.97 79.3,9.44 118.91,13.37 22.26,2.31 44.47,4.42 66.73,6.44l38.52 3.29 28.36 2.21 16.71 1.22 16.06 1.18 29.97 2.06 19.21 1.33 40.68 2.45 40.05 2.12c22.61,1.17 45.11,2.16 67.62,3.14l28.89 1.09c31.84,1.17 63.63,2.11 95.37,2.9 52.43,1.23 104.81,1.47 157.09,0.89 17.14,-0.2 34.25,-0.98 51.35,-1.42 35.18,-0.84 70.31,-1.58 105.39,-3.24 20.54,-0.98 41.13,-2.51 61.67,-3.73 31.5,-1.96 62.95,-3.78 94.34,-6.34 22.01,-1.71 43.98,-4.07 65.94,-6.24 29.97,-2.8 59.99,-5.65 89.87,-9.09 22.66,-2.61 45.26,-5.71 67.87,-8.65 29.18,-3.78 58.32,-7.61 87.46,-11.89 22.79,-3.45 45.64,-7.28 68.44,-10.91 28.75,-4.76 57.49,-9.53 86.19,-14.74 23.33,-4.23 46.62,-8.75 69.92,-13.32 28.15,-5.55 56.32,-11.16 84.37,-17.2 23.04,-4.96 46.08,-10.12 69.08,-15.38 28.4,-6.53 56.76,-13.12 85.11,-20.15 23.09,-5.65 46.18,-11.59 69.23,-17.58 27.66,-7.12 55.32,-14.54 82.89,-22.26 23.53,-6.54 47.03,-13.07 70.51,-19.95 27.76,-8.06 55.48,-16.51 83.24,-25.01 22.55,-7.03 45.16,-13.96 67.71,-21.28 28.4,-9.13 56.75,-18.57 85.1,-28.2 22.31,-7.52 44.61,-15.13 66.87,-22.95 28.25,-9.88 56.46,-20.24 84.66,-30.62 22.11,-8.2 44.27,-16.3 66.34,-24.66 28.6,-10.96 57.14,-22.31 85.69,-33.66 21.33,-8.51 42.66,-16.85 63.93,-25.55 30.02,-12.38 59.9,-25.21 89.82,-37.98 19.86,-8.5 39.7,-16.81 59.51,-25.51 31.4,-13.71 62.65,-28.01 93.9,-42.3 18.23,-8.35 36.56,-16.47 54.74,-24.97 37,-17.25 73.85,-35.18 110.71,-53.11 12.14,-5.95 24.32,-11.6 36.4,-17.59 99.21,-49.04 197.93,-100.68 296.1,-154.54 10.32,-5.65 20.64,-11.59 30.95,-17.39 38.28,-21.17 76.61,-42.6 114.74,-64.56 15.77,-9.09 31.49,-18.48 47.27,-27.66 32.58,-19.02 65.1,-38.04 97.54,-57.54 18.23,-10.96 36.35,-22.26 54.54,-33.37 29.88,-18.18 59.75,-36.46 89.53,-55.03 19.01,-11.99 38.03,-24.18 57.05,-36.22 28.85,-18.37 57.63,-36.76 86.38,-55.48 19.5,-12.63 38.91,-25.59 58.42,-38.42 28.15,-18.67 56.26,-37.34 84.36,-56.31 19.41,-13.12 38.72,-26.34 58.08,-39.65 27.91,-19.07 55.78,-38.33 83.58,-57.69 19.76,-13.9 39.46,-27.85 59.16,-41.81 27.17,-19.26 54.25,-38.67 81.32,-58.18 19.85,-14.34 39.75,-28.84 59.55,-43.38 26.79,-19.61 53.47,-39.31 80.15,-59.21 19.85,-14.79 39.7,-29.68 59.5,-44.62 26.88,-20.29 53.66,-40.73 80.44,-61.37 19.16,-14.69 38.33,-29.43 57.44,-44.32 27.47,-21.37 54.88,-42.89 82.21,-64.56 18.33,-14.5 36.65,-28.89 54.93,-43.58 27.18,-21.72 54.3,-43.68 81.38,-65.7 18.72,-15.18 37.39,-30.31 56.06,-45.59 27.08,-22.26 54.1,-44.77 81.08,-67.27 17.98,-14.99 35.97,-29.83 53.85,-44.96 28.55,-24.03 57,-48.36 85.45,-72.63 16.06,-13.8 32.23,-27.46 48.3,-41.27 30.32,-26.19 60.49,-52.57 90.66,-79.01 14.21,-12.48 28.45,-24.77 42.6,-37.25 34.16,-30.16 68.11,-60.48 102.02,-90.99 9.92,-8.85 19.94,-17.64 29.88,-26.58 88.84,-80.2 176.94,-161.37 264.25,-243.43l9.78 -9.34c39.16,-36.9 78.27,-73.9 117.15,-111.2 15.62,-14.94 31.1,-30.07 46.62,-45.01 27.12,-26.24 54.3,-52.38 81.27,-78.67 16.12,-15.72 32.09,-31.54 48.11,-47.27 26.39,-25.89 52.77,-51.84 78.96,-77.83 16.95,-16.85 33.75,-33.75 50.61,-50.56 24.57,-24.57 49.15,-49.09 73.52,-73.8 17.74,-17.84 35.32,-35.78 52.92,-53.66 24.27,-24.62 48.5,-49.34 72.67,-74.05l50.51 -52.18c24.08,-24.77 48.06,-49.63 71.99,-74.55l52.39 -54.74c22.74,-23.83 45.45,-47.66 68.05,-71.59l52.92 -56.02c23.45,-25.01 46.84,-49.97 70.18,-74.93l49.87 -53.61c21.82,-23.48 43.49,-46.97 65.16,-70.42l56.11 -61.02 61.22 -67.12 56.31 -62 58.96 -65.4c18.62,-20.64 37.3,-41.33 55.82,-62.11 21.13,-23.54 42.06,-47.17 63.04,-70.76l50.12 -56.35c21.57,-24.37 42.95,-48.69 64.37,-73.07l49.42 -56.21c23.15,-26.33 46.05,-52.67 68.99,-79.01l40.34 -46.24c22.56,-26.04 44.96,-51.94 67.37,-77.98l46.24 -53.55 44.81 -52.28c121.86,-142.15 241.07,-283.22 357.42,-422.33l15.67 -18.72 62.85 -75.42 44.96 -54.05 51.7 -62.35 46.48 -56.07 79.36 -96.26 10.22 -12.44 82.21 -100.04 17.69 -21.52c92.18,-112.53 182.3,-222.93 270.2,-330.94z"/>
  <path class="fil0" d="M6663.93 0c2557.17,0 4731.67,1637.13 5533.48,3920.37l-3.69 3.15 -124.57 107.37 -7.76 6.63 -104.91 90.21 -43.82 37.54 -75.97 65.06 -73.55 62.79 -73.31 62.41 -68.94 58.66 -80.78 68.45 -67.61 57.05 -83.24 70.12 -65.94 55.28 -85.06 71.1 -71.3 59.41 -77.68 64.42 -82.75 68.35 -72.87 59.85 -84.52 69.18 -72.87 59.41c-29.78,24.18 -59.7,48.45 -89.72,72.73l-71.4 57.54c-30.26,24.32 -60.63,48.64 -91.04,72.97 -23.78,19.02 -47.47,38.04 -71.35,57 -30.41,24.13 -60.97,48.3 -91.59,72.52 -24.77,19.56 -49.48,39.16 -74.39,58.67 -30.57,24.02 -61.37,48.06 -92.13,72.13 -24.48,19.02 -48.85,38.09 -73.41,57.25 -32.53,25.15 -65.26,50.31 -97.93,75.57 -23.39,17.94 -46.68,35.97 -70.17,53.91 -34.54,26.43 -69.28,52.82 -104.03,79.2 -21.86,16.61 -43.58,33.12 -65.5,49.67 -41.81,31.55 -83.92,63.04 -126.08,94.5 -14.65,10.95 -29.14,21.91 -43.83,32.77 -47.71,35.48 -95.72,70.8 -143.73,105.98l-30.86 22.71c-58.27,42.65 -116.75,84.96 -175.46,127.17l-19.7 14.05c-52.19,37.34 -104.47,74.64 -156.99,111.64 -15.58,11.01 -31.3,21.87 -46.88,32.82 -43.09,30.17 -86.23,60.39 -129.57,90.42 -21.62,14.94 -43.44,29.72 -65.15,44.61 -37.54,25.79 -75.08,51.6 -112.77,77.14 -24.52,16.66 -49.19,33.07 -73.8,49.58 -35.03,23.54 -70.12,47.08 -105.26,70.37 -25.2,16.76 -50.51,33.22 -75.82,49.82 -35.37,23.2 -70.8,46.54 -106.33,69.53 -24.48,15.78 -49.04,31.5 -73.56,47.22 -36.02,23.1 -72.03,46.09 -108.1,68.94 -26.19,16.55 -52.43,32.82 -78.66,49.23 -34.15,21.28 -68.25,42.6 -102.51,63.68 -27.17,16.66 -54.39,33.26 -81.61,49.73 -34.3,20.93 -68.6,41.71 -102.94,62.3 -26.98,16.06 -54.01,32.09 -80.98,48.06 -34.54,20.34 -69.14,40.64 -103.78,60.78 -27.03,15.73 -54.15,31.35 -81.22,46.83 -34.6,19.8 -69.19,39.56 -103.83,58.96 -27.61,15.58 -55.18,30.91 -82.79,46.29 -34.5,19.12 -68.98,38.04 -103.53,56.85 -27.17,14.79 -54.4,29.43 -81.57,44.07 -35.53,19.02 -71.1,37.84 -106.67,56.51 -26.78,14 -53.51,28.01 -80.34,41.76 -35.48,18.34 -70.96,36.41 -106.48,54.3 -27.12,13.66 -54.25,27.32 -81.37,40.78 -35.43,17.54 -70.91,34.78 -106.43,51.98 -27.17,13.22 -54.39,26.39 -81.56,39.26 -35.57,16.9 -71.15,33.47 -106.78,49.88 -27.22,12.63 -54.44,25.21 -81.66,37.63 -35.82,16.17 -71.59,31.95 -107.46,47.71 -26.98,11.9 -53.91,23.89 -80.88,35.53 -36.85,15.82 -73.76,31.2 -110.66,46.63 -25.84,10.76 -51.7,21.72 -77.54,32.23 -38.37,15.68 -76.75,30.71 -115.08,45.84 -24.52,9.63 -49.09,19.46 -73.61,28.94 -39.85,15.24 -79.69,29.83 -119.49,44.57 -23.24,8.55 -46.44,17.44 -69.68,25.79 -42.22,15.13 -84.47,29.48 -126.67,44.02 -20.84,7.07 -41.62,14.59 -62.46,21.47 -59.36,19.85 -118.71,38.87 -178.02,57.24l-9.97 3.2c-63.34,19.46 -126.67,38.09 -189.97,55.78 -14,3.98 -28.01,7.36 -42.01,11.25 -48.64,13.31 -97.34,26.48 -145.93,38.82 -22.25,5.6 -44.52,10.51 -66.73,15.92 -40.43,9.78 -80.82,19.7 -121.17,28.74 -25.21,5.6 -50.37,10.57 -75.58,15.92 -37.19,7.82 -74.44,15.82 -111.63,22.99 -26.68,5.17 -53.31,9.73 -80,14.55 -35.81,6.48 -71.69,13.01 -107.45,18.77 -26.93,4.42 -53.86,8.2 -80.73,12.19 -35.38,5.3 -70.81,10.62 -106.18,15.18 -27.28,3.59 -54.5,6.58 -81.72,9.73 -34.79,4.13 -69.63,8.06 -104.36,11.55 -27.72,2.66 -55.33,4.81 -82.95,7.12 -34.15,2.75 -68.3,5.51 -102.35,7.72 -28.15,1.76 -56.26,3.04 -84.31,4.42 -33.42,1.57 -66.83,2.99 -100.15,3.93 -28.39,0.84 -56.7,1.23 -85.06,1.53 -33.06,0.34 -66.18,0.49 -99.2,0.24 -28.35,-0.24 -56.7,-0.89 -85.01,-1.67 -32.68,-0.84 -65.35,-1.97 -97.92,-3.54 -28.55,-1.28 -57,-2.95 -85.45,-4.76 -32.19,-2.12 -64.32,-4.52 -96.4,-7.28 -28.65,-2.5 -57.2,-5.21 -85.75,-8.15 -32.03,-3.39 -64.03,-7.23 -96.01,-11.3 -28.31,-3.59 -56.65,-7.28 -84.91,-11.41 -31.84,-4.72 -63.53,-9.88 -95.23,-15.32 -28.25,-4.77 -56.45,-9.59 -84.66,-14.94 -31.64,-6 -63.14,-12.63 -94.63,-19.37 -28.06,-5.95 -56.11,-11.93 -84.03,-18.42 -31.49,-7.42 -62.84,-15.63 -94.2,-23.74 -27.71,-7.17 -55.47,-14.25 -83.08,-22.01 -31.6,-8.85 -63,-18.62 -94.44,-28.26 -27.18,-8.3 -54.4,-16.36 -81.48,-25.3 -31.84,-10.41 -63.49,-21.96 -95.17,-33.26 -26.49,-9.43 -53.02,-18.62 -79.41,-28.55 -31.99,-12.09 -63.74,-25.45 -95.62,-38.37 -25.89,-10.57 -51.89,-20.73 -77.68,-31.89 -33.31,-14.35 -66.38,-30.08 -99.5,-45.35 -23.93,-11.11 -47.9,-21.58 -71.69,-33.12 -36.46,-17.59 -72.58,-36.9 -108.84,-55.72 -20.44,-10.71 -40.98,-20.79 -61.37,-31.74 -51.2,-27.57 -102.06,-56.9 -152.72,-87.13l-12.04 -7.07 -2.8 -1.67 -0.05 -0.06c-470.14,-277.62 -874.25,-737.2 -1235.89,-1313.17 313.74,180.04 630.62,341.21 957.18,444.44 -102.51,-434.03 -156.85,-886.62 -156.85,-1351.9 0,-3238.41 2625.23,-5863.63 5863.59,-5863.63z"/>
  <path class="fil0" d="M13331.24 2785.36c-495.25,-341.25 -1110.59,-595.24 -1740.82,-838.37 1343.79,-210.69 2687.63,-421.39 4031.43,-632.14 -360.37,1346.83 -720.74,2693.72 -1081.16,4040.56 -111.49,-645.36 -274.77,-1278.74 -545.12,-1887.44 490.14,-676.47 980.33,-1352.98 1470.51,-2029.45 -711.59,448.97 -1423.2,897.93 -2134.84,1346.84z"/>
 </g>
</svg>
