<?xml version="1.0" encoding="UTF-8"?>
<!DOCTYPE svg PUBLIC "-//W3C//DTD SVG 1.1//EN" "http://www.w3.org/Graphics/SVG/1.1/DTD/svg11.dtd">
<!-- Creator: CorelDRAW -->
<svg xmlns="http://www.w3.org/2000/svg" xml:space="preserve" width="452.374mm" height="121.843mm" version="1.1" style="shape-rendering:geometricPrecision; text-rendering:geometricPrecision; image-rendering:optimizeQuality; fill-rule:evenodd; clip-rule:evenodd"
viewBox="0 0 45723.02 12315.07"
 xmlns:xlink="http://www.w3.org/1999/xlink"
 xmlns:xodm="http://www.corel.com/coreldraw/odm/2003">
 <defs>
  <style type="text/css">
   <![CDATA[
    .fil0 {fill:#FEFEFE}
   ]]>
  </style>
 </defs>
 <g id="Camada_x0020_1">
  <metadata id="CorelCorpID_0Corel-Layer"/>
  <path class="fil0" d="M26088.58 4181.86l358.99 2015.19 -1242.69 0 883.7 -2015.19zm18005.14 -3106.77c-269.92,0 -1044.64,-532.36 -1497.3,161.77 -141.72,217.32 -231.91,419.8 -297.68,705.89l497.07 0c195.46,-850.32 1015.65,98.64 1652.12,-284.74 437.93,-263.8 447.61,-743.48 557.11,-974.75l-497.08 0c-42.16,80.76 -78.63,180.61 -127.27,262.84 -52.31,88.4 -167.67,129 -286.96,129zm-773.21 3106.77l331.38 2015.19 -1215.08 0 883.7 -2015.19zm-5467.83 27.98c6,273.41 300.82,1734.09 359,1987.22l-1215.08 0c7.16,-87.08 156.06,-393.36 202.38,-494.61 77.2,-168.75 148.04,-327.75 230.57,-494.02l423.12 -998.59zm-3755.67 4450.23l1739.75 0 607.53 -1119.55 1933.07 0 311.36 1119.55 2533.02 0c88.48,0 134.56,-160.19 174.92,-242.55l432.63 -877.01 2071.14 0 220.92 1119.55 1601.69 0 -1244.06 -5989.61 -1931.69 0 -2457.76 4898.05 -1049.39 -4898.05 -1933.07 0 -3010.05 5989.61zm-13365.79 139.95c511.92,0 749.81,24.67 1249.78,-76.77 113.23,-22.97 189.51,-52.65 288.47,-68.54l1803.19 5.36 395.8 -858.33c41.18,-83.73 95.2,-261.22 184.11,-261.22l2015.91 0c0,215.16 205.79,935.01 220.93,1119.55 1262.12,0 1843.91,0 3092.91,0 80.56,-350.45 215.75,-1438.45 291.65,-1915.52 95.75,-601.78 233.04,-1379.18 233.04,-1974.93 20.33,29.63 0.88,-10.89 29.6,53.95 19.02,42.96 10.07,21.16 23.18,60.48 164.5,493.37 1431.82,3445.93 1604.14,3776.01l1739.77 0c96.03,-417.78 380.54,-2478.03 461.34,-2975.04 82.7,-508.78 148.67,-993.55 233.05,-1499.1 40.51,-242.65 216.91,-1323.64 216.91,-1515.47l-1574.07 0c-11.06,134.48 -56.81,330.5 -74.84,455.94 -26.6,185.14 -44.64,302.42 -71.25,487.56 -123.33,858.09 -378.61,2079.4 -378.61,2890.97 -3.69,-5.9 -7.66,-22.88 -8.9,-18.94 -11.5,-25.63 -14.09,-31.86 -16.75,-39.01 -0.99,-2.71 -20.43,-61.99 -20.72,-62.96 -18.57,-60.56 -20.61,-77.47 -36.41,-131.04 -107.15,-363.56 -881.92,-2137.33 -1073.13,-2606.88 -64.84,-159.22 -382.05,-872.23 -390.54,-975.63l-1850.22 0c0,228.45 -159.31,1123.41 -205.43,1415.15 -78.29,495.38 -145.76,937.26 -216.81,1431.6l-433.83 2834.98c-3.75,-5.98 -7.21,-23.4 -8.31,-19.55l-1179.14 -5662.18 -2015.92 0 -2778.06 5659.36 130.84 -953.35c14.44,-86.97 43.89,-220.46 51.39,-311.76 -252.09,101.36 -450.45,284.08 -1546.45,279.88 -368.49,0 -807.73,-208.73 -971.31,-415.01 -819.97,-1034.12 -149.81,-2915.66 1192.22,-2915.66 537.46,0 953.17,72.4 1397.51,374.85l314.63 212.91 248.54 -1623.35c0,-88.62 -596.2,-277.29 -717.93,-307.95 -1107.27,-279.01 -2255.99,-179.57 -3176.39,531.29 -340.12,262.7 -654.14,657.55 -846.69,1045.09 -700.22,1409.3 -530.21,3349.81 986.39,4244.28 261.54,154.25 771.13,308.96 1186.4,308.96z"/>
  <path class="fil0" d="M29299.97 9695.88l-52.02 407.13 883.19 0 -58.89 447.27 -885.76 0 -131.21 1019.2 -484.76 0 304.98 -2323.93 1367.03 0 -56.48 450.33 -886.08 0zm2257.46 1873.6l59.03 -449.8 449.56 0 186.92 -1424.28 -411.97 0 59.03 -449.8 411.97 0 0.01 -0.06 491.87 0 -0.01 0.06 463.19 0 -56.41 449.8 -466.65 0 -189.57 1424.28 429.1 0 -56.41 449.8 -432.55 0 -487.54 0 -449.56 0zm4466.84 -1204.66c54.87,32.84 104.31,74.21 145.67,125.99 80.6,100.9 114.19,220.75 114.19,349 0,118.19 -22.62,232.66 -74.93,339.04 -50.59,102.88 -123.84,187.8 -218.2,252.94 -81.75,56.44 -176.63,89.29 -273.62,107.94 -66.92,12.86 -137.75,18.49 -205.73,22.44 -99.91,5.8 -200.44,7.32 -300.5,7.32l-559.04 0 304.43 -2323.93 533.3 0c121.23,0 272.93,1.87 390.88,31.07 84.49,20.91 163.22,57.42 229.82,113.99 63.87,54.26 112.55,121 145.84,197.8 34.4,79.35 49.09,163.78 49.09,250.01 0,140.83 -34.35,275.27 -121.01,388.1 -45.13,58.77 -99.14,104.33 -160.22,138.31zm3276.76 236.08l617.42 968.58 -552.67 0 -558.35 -903.21 -121.03 903.21 -481.89 0 304.98 -2323.93 455.99 0c120.67,0 276.09,1.85 393.21,32.29 84.51,21.97 161.68,60.14 230.12,114.23 75.23,59.46 133.68,132.75 173.26,220.23 41.06,90.74 59.21,187.79 59.21,287.14 0,179.39 -45.96,349.09 -164.82,486.43 -95.49,110.35 -218.91,177.85 -355.44,215.03zm3693.56 452.88l-775.72 0 -287.86 515.7 -534.42 0 1398.43 -2510.76 882.54 2510.76 -505.49 0 -177.5 -515.7zm-7613.61 -1370.11l-60.56 471.22 44.33 0c103.81,0 299.43,-6.3 389.75,-64.45 68.11,-43.87 85.41,-119.68 85.41,-196.58 0,-59.44 -11.65,-123.87 -64.95,-158.7 -72.25,-47.22 -253.57,-51.49 -336.97,-51.49l-57.01 0zm-188.61 1444.63l138.31 0c68.81,0 144.69,-0.44 212.91,-9.99 37.32,-5.23 75.71,-14.03 108.78,-28.24 46,-21.21 81.09,-53.48 107.04,-96.98 29.16,-48.89 40.83,-102.74 40.83,-159.39 0,-68.28 -13.51,-142.12 -74.36,-182.26 -81.05,-53.45 -275.07,-58.44 -368.75,-58.44l-95.23 0 -69.53 535.3zm3670.89 -912.42c106.98,-0.56 300.02,-8.73 385.25,-67.7 70.59,-48.83 85.82,-139.01 85.82,-219.24 0,-62.89 -11,-136.99 -66.84,-175.38 -70.76,-48.65 -246.72,-54.36 -334.03,-54.62l-70.21 516.94zm3568.9 405.88l422.94 0 -139.56 -447.37c-6.21,-19.88 -11.52,-40.34 -16.36,-60.87 -12.56,26.24 -25.42,52.33 -38.69,78.21l-228.33 430.03z"/>
  <path class="fil0" d="M13075.18 5163.6c52.63,323.53 80.23,655.52 80.23,993.91 0,3400.66 -2756.8,6157.56 -6157.5,6157.56 -1323.73,0 -2549.89,-417.8 -3553.76,-1128.64 11.1,2.43 22.19,4.75 33.28,7.02l0.98 0.2c100.25,21 200.31,38.39 300.05,52.63l0.46 0.11 29.41 4.07 8.26 1.13c13.21,1.71 26.42,3.51 39.68,5.16l13.83 1.8c41.69,5.22 83.27,9.92 124.87,14.04 23.38,2.43 46.7,4.64 70.07,6.76l40.45 3.46 29.78 2.32 17.55 1.28 16.87 1.24 31.47 2.16 20.17 1.39 42.72 2.58 42.06 2.22c23.74,1.23 47.37,2.26 71,3.29l30.34 1.14c33.44,1.23 66.82,2.21 100.15,3.04 55.05,1.29 110.06,1.55 164.96,0.93 18,-0.21 35.96,-1.03 53.92,-1.5 36.94,-0.88 73.83,-1.66 110.68,-3.41 21.57,-1.03 43.19,-2.64 64.76,-3.92 33.08,-2.06 66.1,-3.97 99.07,-6.66 23.12,-1.8 46.18,-4.28 69.25,-6.55 31.47,-2.94 63,-5.93 94.37,-9.54 23.79,-2.74 47.52,-5.99 71.27,-9.09 30.65,-3.97 61.24,-7.99 91.85,-12.48 23.93,-3.62 47.93,-7.64 71.87,-11.46 30.19,-5 60.37,-10.01 90.51,-15.47 24.5,-4.44 48.96,-9.19 73.42,-13.99 29.56,-5.83 59.14,-11.71 88.6,-18.06 24.2,-5.21 48.39,-10.62 72.54,-16.15 29.83,-6.85 59.6,-13.78 89.38,-21.15 24.25,-5.93 48.5,-12.17 72.7,-18.47 29.05,-7.48 58.1,-15.27 87.04,-23.38 24.71,-6.86 49.38,-13.73 74.05,-20.95 29.15,-8.46 58.26,-17.33 87.41,-26.26 23.68,-7.38 47.42,-14.66 71.11,-22.35 29.83,-9.59 59.59,-19.5 89.37,-29.61 23.43,-7.89 46.85,-15.89 70.23,-24.1 29.67,-10.37 59.29,-21.26 88.9,-32.15 23.22,-8.61 46.49,-17.12 69.66,-25.9 30.03,-11.51 60.01,-23.43 89.99,-35.35 22.4,-8.93 44.8,-17.7 67.13,-26.84 31.52,-13 62.9,-26.47 94.32,-39.88 20.85,-8.92 41.69,-17.65 62.49,-26.78 32.97,-14.39 65.79,-29.41 98.61,-44.42 19.14,-8.77 38.39,-17.29 57.48,-26.22 38.85,-18.11 77.55,-36.94 116.25,-55.77 12.75,-6.25 25.54,-12.18 38.23,-18.48 104.19,-51.5 207.85,-105.72 310.94,-162.28 10.84,-5.93 21.67,-12.17 32.51,-18.26 40.2,-22.24 80.44,-44.74 120.49,-67.8 16.56,-9.54 33.07,-19.41 49.64,-29.05 34.21,-19.97 68.37,-39.94 102.43,-60.42 19.14,-11.51 38.18,-23.38 57.27,-35.04 31.37,-19.09 62.75,-38.29 94.02,-57.78 19.96,-12.59 39.93,-25.39 59.91,-38.03 30.29,-19.29 60.52,-38.6 90.71,-58.26 20.48,-13.26 40.86,-26.88 61.35,-40.35 29.56,-19.61 59.08,-39.22 88.59,-59.13 20.39,-13.78 40.66,-27.66 60.99,-41.64 29.31,-20.02 58.57,-40.25 87.77,-60.58 20.75,-14.6 41.44,-29.25 62.13,-43.91 28.53,-20.22 56.97,-40.61 85.4,-61.1 20.84,-15.06 41.74,-30.28 62.53,-45.55 28.13,-20.59 56.15,-41.28 84.16,-62.18 20.84,-15.54 41.69,-31.17 62.48,-46.86 28.23,-21.31 56.35,-42.77 84.47,-64.44 20.12,-15.42 40.25,-30.91 60.32,-46.54 28.85,-22.44 57.63,-45.04 86.33,-67.8 19.24,-15.22 38.49,-30.34 57.68,-45.77 28.54,-22.81 57.03,-45.87 85.46,-68.99 19.66,-15.94 39.27,-31.83 58.87,-47.88 28.43,-23.38 56.81,-47.01 85.14,-70.64 18.88,-15.74 37.77,-31.32 56.55,-47.21 29.98,-25.24 59.86,-50.78 89.73,-76.27 16.87,-14.49 33.85,-28.84 50.72,-43.34 31.84,-27.5 63.52,-55.21 95.2,-82.97 14.92,-13.11 29.88,-26.01 44.74,-39.12 35.87,-31.68 71.52,-63.51 107.13,-95.55 10.42,-9.29 20.94,-18.53 31.37,-27.92 93.29,-84.21 185.8,-169.46 277.5,-255.63l10.27 -9.8c41.13,-38.75 82.19,-77.6 123.02,-116.77 16.4,-15.69 32.66,-31.58 48.96,-47.26 28.48,-27.55 57.03,-55 85.35,-82.62 16.93,-16.51 33.7,-33.12 50.52,-49.64 27.71,-27.19 55.42,-54.44 82.92,-81.73 17.8,-17.7 35.45,-35.45 53.14,-53.09 25.8,-25.8 51.61,-51.55 77.2,-77.5 18.63,-18.74 37.09,-37.57 55.57,-56.35 25.49,-25.85 50.93,-51.81 76.31,-77.77l53.04 -54.79c25.29,-26.01 50.47,-52.11 75.59,-78.28l55.01 -57.48c23.88,-25.03 47.73,-50.05 71.46,-75.18l55.57 -58.82c24.62,-26.26 49.18,-52.48 73.69,-78.69l52.37 -56.3c22.91,-24.66 45.67,-49.32 68.43,-73.95l58.93 -64.08 64.29 -70.49 59.13 -65.11 61.92 -68.68c19.56,-21.67 39.17,-43.4 58.62,-65.22 22.19,-24.72 44.17,-49.54 66.2,-74.31l52.63 -59.18c22.65,-25.59 45.1,-51.13 67.6,-76.74l51.9 -59.03c24.31,-27.65 48.35,-55.31 72.45,-82.97l42.36 -48.56c23.69,-27.34 47.21,-54.54 70.74,-81.89l48.56 -56.24 47.06 -54.9c127.97,-149.28 253.15,-297.42 375.34,-443.5l16.45 -19.66 66 -79.2 47.21 -56.76 54.29 -65.48 48.81 -58.88 83.34 -101.08 10.73 -13.06 86.33 -105.06 18.58 -22.6c96.8,-118.17 191.43,-234.11 283.74,-347.52z"/>
  <path class="fil0" d="M6997.91 0c2685.33,0 4968.81,1719.18 5810.81,4116.85l-3.87 3.31 -130.81 112.75 -8.15 6.96 -110.17 94.74 -46.02 39.42 -79.78 68.33 -77.24 65.94 -76.99 65.54 -72.4 61.6 -84.83 71.88 -70.99 59.91 -87.41 73.63 -69.25 58.05 -89.32 74.66 -74.88 62.38 -81.58 67.65 -86.89 71.77 -76.52 62.85 -88.75 72.65 -76.52 62.38c-31.27,25.39 -62.7,50.88 -94.22,76.37l-74.98 60.42c-31.78,25.54 -63.67,51.08 -95.61,76.62 -24.98,19.97 -49.85,39.94 -74.93,59.86 -31.94,25.34 -64.03,50.72 -96.18,76.16 -26.01,20.54 -51.96,41.13 -78.12,61.61 -32.1,25.23 -64.44,50.47 -96.75,75.74 -25.7,19.97 -51.29,39.99 -77.09,60.12 -34.16,26.41 -68.53,52.83 -102.84,79.35 -24.56,18.84 -49.02,37.77 -73.68,56.61 -36.28,27.75 -72.75,55.47 -109.24,83.17 -22.95,17.45 -45.77,34.78 -68.78,52.16 -43.91,33.13 -88.13,66.2 -132.4,99.23 -15.38,11.5 -30.61,23 -46.03,34.42 -50.1,37.26 -100.52,74.35 -150.93,111.29l-32.4 23.84c-61.19,44.79 -122.6,89.22 -184.26,133.54l-20.69 14.76c-54.8,39.22 -109.71,78.38 -164.86,117.24 -16.36,11.56 -32.87,22.96 -49.23,34.47 -45.25,31.69 -90.55,63.41 -136.07,94.95 -22.7,15.69 -45.61,31.21 -68.42,46.85 -39.42,27.09 -78.85,54.19 -118.42,81.01 -25.75,17.5 -51.66,34.73 -77.5,52.06 -36.79,24.72 -73.63,49.44 -110.53,73.89 -26.46,17.6 -53.04,34.88 -79.62,52.32 -37.14,24.36 -74.35,48.87 -111.66,73.02 -25.7,16.57 -51.5,33.08 -77.25,49.59 -37.82,24.26 -75.64,48.4 -113.52,72.4 -27.5,17.38 -55.05,34.47 -82.61,51.7 -35.86,22.35 -71.67,44.74 -107.64,66.87 -28.53,17.5 -57.12,34.93 -85.7,52.22 -36.02,21.98 -72.04,43.81 -108.1,65.42 -28.33,16.87 -56.71,33.7 -85.04,50.47 -36.28,21.36 -72.6,42.67 -108.98,63.83 -28.38,16.52 -56.86,32.92 -85.29,49.17 -36.34,20.79 -72.66,41.54 -109.04,61.92 -29,16.36 -57.95,32.45 -86.94,48.61 -36.22,20.07 -72.44,39.94 -108.71,59.7 -28.53,15.54 -57.13,30.91 -85.66,46.28 -37.31,19.97 -74.66,39.73 -112.02,59.34 -28.12,14.71 -56.2,29.41 -84.37,43.86 -37.26,19.25 -74.51,38.24 -111.82,57.03 -28.48,14.34 -56.97,28.68 -85.45,42.82 -37.21,18.42 -74.46,36.53 -111.77,54.59 -28.53,13.88 -57.12,27.71 -85.65,41.23 -37.36,17.75 -74.71,35.14 -112.13,52.38 -28.58,13.26 -57.17,26.47 -85.75,39.52 -37.62,16.98 -75.18,33.55 -112.85,50.1 -28.33,12.49 -56.61,25.09 -84.93,37.31 -38.7,16.62 -77.45,32.77 -116.2,48.97 -27.14,11.3 -54.29,22.81 -81.42,33.85 -40.3,16.46 -80.6,32.25 -120.84,48.14 -25.75,10.12 -51.55,20.44 -77.3,30.39 -41.84,16 -83.69,31.32 -125.48,46.81 -24.41,8.98 -48.77,18.31 -73.17,27.09 -44.33,15.89 -88.7,30.96 -133.02,46.23 -21.88,7.43 -43.7,15.32 -65.59,22.55 -62.33,20.84 -124.66,40.81 -186.95,60.11l-10.47 3.36c-66.52,20.44 -133.02,39.99 -199.49,58.57 -14.71,4.17 -29.41,7.73 -44.12,11.82 -51.08,13.98 -102.22,27.81 -153.25,40.76 -23.37,5.88 -46.75,11.04 -70.07,16.72 -42.46,10.27 -84.87,20.69 -127.24,30.18 -26.47,5.88 -52.89,11.1 -79.36,16.72 -39.05,8.21 -78.17,16.62 -117.23,24.15 -28.02,5.43 -55.98,10.22 -84.01,15.28 -37.61,6.8 -75.28,13.67 -112.84,19.71 -28.28,4.64 -56.56,8.61 -84.78,12.8 -37.15,5.57 -74.36,11.15 -111.5,15.94 -28.64,3.77 -57.23,6.91 -85.81,10.22 -36.54,4.34 -73.12,8.46 -109.59,12.13 -29.11,2.79 -58.11,5.05 -87.11,7.48 -35.86,2.89 -71.72,5.78 -107.48,8.11 -29.56,1.85 -59.08,3.19 -88.54,4.64 -35.09,1.65 -70.18,3.14 -105.17,4.12 -29.82,0.88 -59.54,1.29 -89.32,1.61 -34.72,0.35 -69.5,0.52 -104.18,0.25 -29.77,-0.25 -59.54,-0.93 -89.27,-1.75 -34.31,-0.88 -68.63,-2.07 -102.83,-3.72 -29.98,-1.34 -59.86,-3.09 -89.73,-5 -33.8,-2.22 -67.55,-4.75 -101.24,-7.64 -30.09,-2.63 -60.07,-5.47 -90.05,-8.56 -33.64,-3.56 -67.23,-7.59 -100.82,-11.87 -29.73,-3.77 -59.49,-7.64 -89.17,-11.98 -33.44,-4.95 -66.72,-10.37 -100,-16.09 -29.67,-5.01 -59.28,-10.07 -88.9,-15.69 -33.22,-6.3 -66.3,-13.26 -99.38,-20.34 -29.46,-6.25 -58.93,-12.53 -88.24,-19.35 -33.07,-7.79 -65.99,-16.41 -98.92,-24.92 -29.1,-7.53 -58.25,-14.97 -87.25,-23.12 -33.18,-9.29 -66.15,-19.56 -99.17,-29.68 -28.54,-8.71 -57.13,-17.18 -85.56,-26.57 -33.44,-10.94 -66.67,-23.06 -99.94,-34.93 -27.82,-9.91 -55.68,-19.56 -83.39,-29.98 -33.6,-12.69 -66.93,-26.72 -100.42,-40.3 -27.19,-11.1 -54.49,-21.77 -81.58,-33.49 -34.98,-15.07 -69.71,-31.59 -104.49,-47.63 -25.13,-11.66 -50.3,-22.66 -75.28,-34.78 -38.29,-18.48 -76.22,-38.75 -114.29,-58.51 -21.47,-11.25 -43.04,-21.83 -64.44,-33.33 -53.77,-28.95 -107.18,-59.75 -160.37,-91.49l-12.64 -7.43 -2.94 -1.75 -0.05 -0.06c-493.7,-291.54 -918.06,-774.14 -1297.83,-1378.99 329.46,189.06 662.22,358.31 1005.16,466.72 -107.64,-455.78 -164.71,-931.06 -164.71,-1419.66 0,-3400.71 2756.8,-6157.5 6157.46,-6157.5z"/>
  <path class="fil0" d="M13999.38 2924.96c-520.07,-358.36 -1166.25,-625.07 -1828.07,-880.39 1411.14,-221.25 2822.33,-442.51 4233.48,-663.82 -378.43,1414.33 -756.86,2828.73 -1135.35,4243.07 -117.07,-677.71 -288.54,-1342.82 -572.44,-1982.03 514.71,-710.38 1029.46,-1420.79 1544.21,-2131.17 -747.26,471.47 -1494.52,942.94 -2241.83,1414.34z"/>
 </g>
</svg>
